<?xml version="1.0" encoding="UTF-8" standalone="no"?><!-- Generator: Gravit.io --><svg xmlns="http://www.w3.org/2000/svg" xmlns:xlink="http://www.w3.org/1999/xlink" style="isolation:isolate" viewBox="0 0 500 500" width="500pt" height="500pt"><defs><clipPath id="_clipPath_jFXunxv1b7JIsbPAb0PB9TZGvdxqgmqn"><rect width="500" height="500"/></clipPath></defs><g clip-path="url(#_clipPath_jFXunxv1b7JIsbPAb0PB9TZGvdxqgmqn)"><rect width="500" height="500" style="fill:rgb(185,185,185)"/><path d=" M 222.504 64.269 C 211.913 64.269 202.077 69.882 196.698 79.005 L 187.029 95.419 L 159.234 99.84 C 154.058 94.107 146.834 90.207 138.508 91.495 L 120.536 94.281 C 108.872 96.115 100.269 106.153 100.241 117.961 L 100.241 267.941 C 100.241 281.102 111.042 291.903 124.203 291.903 L 191.223 291.903 C 190.501 293.819 190.12 295.846 190.096 297.893 C 190.096 307.747 198.213 315.864 208.068 315.864 L 210.476 315.864 C 212.965 324.01 217.816 331.234 224.415 336.621 L 167.07 426.464 C 165.293 429.256 166.116 432.96 168.909 434.737 C 171.701 436.513 175.405 435.69 177.181 432.898 L 234.749 342.713 C 237.684 343.923 240.763 344.828 244.01 345.313 L 244.01 429.681 C 244.01 432.989 246.692 435.671 250 435.671 C 253.308 435.671 255.99 432.989 255.99 429.681 L 255.99 345.313 C 259.173 344.824 262.285 343.951 265.257 342.713 L 322.825 432.898 C 323.962 434.731 325.996 435.811 328.151 435.726 C 330.307 435.641 332.25 434.404 333.239 432.487 C 334.228 430.57 334.11 428.27 332.93 426.464 L 275.579 336.621 C 282.18 331.235 287.033 324.011 289.524 315.864 L 291.932 315.864 C 301.787 315.864 309.904 307.747 309.904 297.893 C 309.904 295.784 309.46 293.79 308.777 291.903 L 375.797 291.903 C 388.958 291.903 399.759 281.102 399.759 267.941 L 399.759 122.184 C 399.759 110.383 391.055 100.259 379.38 98.492 L 369.016 96.923 C 367.201 92.496 364.05 88.716 359.042 87.877 L 341.095 84.882 L 341.083 84.882 C 335.818 84.007 331.445 86.829 328.324 90.771 L 311.593 88.231 L 308.717 88.231 L 303.284 79.005 C 297.899 69.879 288.093 64.275 277.496 64.269 L 222.504 64.269 Z  M 222.504 76.25 L 277.496 76.25 C 283.869 76.25 289.74 79.605 292.975 85.098 L 301.876 100.211 L 310.682 100.211 L 335.303 103.943 L 336.519 98.48 C 336.8 97.222 337.837 96.491 339.107 96.701 L 339.119 96.701 L 357.066 99.696 C 358.258 99.894 358.959 100.822 358.905 102.086 L 358.659 107.478 L 377.589 110.329 C 383.464 111.191 387.808 116.246 387.778 122.184 L 387.778 267.941 C 387.778 274.633 382.489 279.922 375.797 279.922 L 166.135 279.922 C 166.135 276.614 163.453 273.932 160.145 273.932 C 156.836 273.932 154.154 276.614 154.154 279.922 L 124.203 279.922 C 117.511 279.922 112.222 274.633 112.222 267.941 L 112.222 117.961 C 112.194 112.043 116.512 107.001 122.364 106.118 L 140.335 103.332 C 145.462 102.542 150.027 105.076 152.447 109.197 L 154.154 112.108 C 154.154 112.136 154.154 112.164 154.154 112.192 C 154.154 115.5 156.836 118.182 160.145 118.182 C 163.453 118.182 166.135 115.5 166.135 112.192 C 166.136 111.759 166.09 111.327 165.997 110.904 L 194.481 106.363 L 207.025 85.098 C 210.251 79.613 216.141 76.246 222.504 76.25 Z  M 255.99 124.173 C 219.671 124.173 190.096 153.747 190.096 190.067 C 190.096 226.386 219.671 255.961 255.99 255.961 C 284.037 255.961 307.993 238.301 317.487 213.549 C 318.907 213.83 320.363 214.028 321.884 214.028 C 335.045 214.028 345.846 203.227 345.846 190.067 C 345.846 176.906 335.045 166.105 321.884 166.105 C 320.406 166.12 318.934 166.28 317.487 166.584 C 307.987 141.832 284.037 124.173 255.99 124.173 Z  M 160.145 130.163 C 156.836 130.163 154.154 132.845 154.154 136.153 C 154.154 139.462 156.836 142.144 160.145 142.144 C 163.453 142.144 166.135 139.462 166.135 136.153 C 166.135 132.845 163.453 130.163 160.145 130.163 Z  M 255.99 136.153 C 285.834 136.153 309.904 160.223 309.904 190.067 C 309.904 219.911 285.834 243.98 255.99 243.98 C 226.146 243.98 202.077 219.911 202.077 190.067 C 202.077 160.223 226.146 136.153 255.99 136.153 Z  M 357.826 136.153 C 354.518 136.153 351.836 138.835 351.836 142.144 C 351.836 145.452 354.518 148.134 357.826 148.134 C 361.135 148.134 363.817 145.452 363.817 142.144 C 363.817 138.835 361.135 136.153 357.826 136.153 Z  M 160.145 154.125 C 156.836 154.125 154.154 156.807 154.154 160.115 C 154.154 163.423 156.836 166.105 160.145 166.105 C 163.453 166.105 166.135 163.423 166.135 160.115 C 166.135 156.807 163.453 154.125 160.145 154.125 Z  M 160.145 178.086 C 156.836 178.086 154.154 180.768 154.154 184.076 C 154.154 187.385 156.836 190.067 160.145 190.067 C 163.453 190.067 166.135 187.385 166.135 184.076 C 166.135 180.768 163.453 178.086 160.145 178.086 Z  M 321.884 178.086 C 328.575 178.086 333.865 183.375 333.865 190.067 C 333.865 196.758 328.575 202.047 321.884 202.047 C 321.501 202.047 321.135 201.934 320.758 201.898 C 321.465 198.052 321.884 194.11 321.884 190.067 C 321.884 186.023 321.465 182.082 320.758 178.236 C 321.135 178.2 321.501 178.086 321.884 178.086 Z  M 160.145 202.047 C 156.836 202.047 154.154 204.729 154.154 208.038 C 154.154 211.346 156.836 214.028 160.145 214.028 C 163.453 214.028 166.135 211.346 166.135 208.038 C 166.135 204.729 163.453 202.047 160.145 202.047 Z  M 160.145 226.009 C 156.836 226.009 154.154 228.691 154.154 231.999 C 154.154 235.308 156.836 237.99 160.145 237.99 C 163.453 237.99 166.135 235.308 166.135 231.999 C 166.135 228.691 163.453 226.009 160.145 226.009 Z  M 160.145 249.97 C 156.836 249.97 154.154 252.652 154.154 255.961 C 154.154 259.269 156.836 261.951 160.145 261.951 C 163.453 261.951 166.135 259.269 166.135 255.961 C 166.135 252.652 163.453 249.97 160.145 249.97 Z  M 208.068 291.903 L 291.932 291.903 C 295.317 291.903 297.923 294.509 297.923 297.893 C 297.923 301.278 295.317 303.883 291.932 303.883 L 280.335 303.883 L 279.497 308.879 C 277.116 323.071 264.95 333.544 250.563 333.787 C 250.344 333.763 250.124 333.751 249.904 333.751 C 249.74 333.753 249.576 333.761 249.413 333.775 C 235.038 333.524 222.885 323.058 220.503 308.879 L 219.665 303.883 L 208.068 303.883 C 204.683 303.883 202.077 301.278 202.077 297.893 C 202.077 294.509 204.683 291.903 208.068 291.903 Z  M 238.019 303.883 C 234.711 303.883 232.029 306.565 232.029 309.874 C 232.029 313.182 234.711 315.864 238.019 315.864 C 241.328 315.864 244.01 313.182 244.01 309.874 C 244.01 306.565 241.328 303.883 238.019 303.883 Z  M 261.981 303.883 C 258.672 303.883 255.99 306.565 255.99 309.874 C 255.99 313.182 258.672 315.864 261.981 315.864 C 265.289 315.864 267.971 313.182 267.971 309.874 C 267.971 306.565 265.289 303.883 261.981 303.883 Z " fill="rgb(0,0,0)"/></g></svg>